<svg width="28" height="26" viewBox="0 0 28 26" fill="none" xmlns="http://www.w3.org/2000/svg">
<path d="M13.5244 1.08203C13.6741 0.621379 14.3259 0.621373 14.4756 1.08203L16.8926 8.51953C17.0935 9.13723 17.6688 9.55549 18.3184 9.55566H26.1396C26.6235 9.55603 26.8247 10.1752 26.4336 10.46L20.1064 15.0566C19.5807 15.4386 19.3607 16.1163 19.5615 16.7344L21.9775 24.1719C22.1272 24.6325 21.6008 25.015 21.209 24.7305L14.8818 20.1338C14.3561 19.7518 13.6439 19.7518 13.1182 20.1338L6.79102 24.7305C6.39918 25.015 5.8728 24.6325 6.02246 24.1719L8.43848 16.7344C8.63929 16.1163 8.41929 15.4386 7.89355 15.0566L1.56641 10.46C1.17526 10.1752 1.37648 9.55603 1.86035 9.55566H9.68164C10.3312 9.55549 10.9065 9.13723 11.1074 8.51953L13.5244 1.08203Z" stroke="#191A19"/>
</svg>
